<?xml version="1.0" encoding="utf-8"?><!-- Uploaded to: SVG Repo, www.svgrepo.com, Generator: SVG Repo Mixer Tools -->
<svg width="800px" height="800px" viewBox="0 0 24 24" id="Layer_1" data-name="Layer 1" xmlns="http://www.w3.org/2000/svg"><defs><style>.cls-1{fill:none;stroke:#EEE;stroke-miterlimit:10;stroke-width:1.91px;}</style></defs><rect class="cls-1" x="5.3" y="18.68" width="5.73" height="3.82"/><rect class="cls-1" x="1.48" y="14.86" width="5.73" height="3.82"/><rect class="cls-1" x="4.34" y="11.05" width="5.73" height="3.82"/><rect class="cls-1" x="7.2" y="14.86" width="5.73" height="3.82"/><rect class="cls-1" x="12.93" y="14.86" width="5.73" height="3.82"/><rect class="cls-1" x="11.02" y="18.68" width="5.73" height="3.82"/><rect class="cls-1" x="16.75" y="18.68" width="5.73" height="3.82"/><path class="cls-1" d="M19.61,10.09l-4.14,1.66a1,1,0,0,1-1.11-.23h0a1,1,0,0,1-.22-1.1L15.8,6.27h0a3.82,3.82,0,0,1,3.81,3.82Z"/><polyline class="cls-1" points="18.66 7.23 19.61 6.27 19.61 3.41 22.48 1.5"/><line class="cls-1" x1="5.3" y1="22.5" x2="0.52" y2="22.5"/></svg>